<?xml version="1.0" encoding="utf-8"?>
<!-- Generator: Adobe Illustrator 26.3.0, SVG Export Plug-In . SVG Version: 6.00 Build 0)  -->
<svg version="1.1" id="Layer_1" focusable="false" xmlns="http://www.w3.org/2000/svg" xmlns:xlink="http://www.w3.org/1999/xlink"
	 x="0px" y="0px" viewBox="0 0 28 28" style="enable-background:new 0 0 28 28;" xml:space="preserve">
<style type="text/css">
	.st0{fill:#5BE9B9;}
	.st1{fill:#141C3A;}
</style>
<circle class="st0" cx="14" cy="14" r="13.5"/>
<g>
	<path class="st1" d="M6,13.9c0.1-0.1,0.2-0.3,0.3-0.4c1.2-1.2,2.3-2.5,3.5-3.7c0.3-0.3,0.6-0.3,0.9-0.1c0.3,0.2,0.3,0.5,0.1,0.8
		c0,0.1-0.1,0.1-0.2,0.2c-1,1.1-2.1,2.2-3.1,3.3c0,0-0.1,0.1-0.1,0.1c0,0,0.1,0.1,0.1,0.1c1.1,1.1,2.1,2.2,3.2,3.3
		c0.2,0.2,0.3,0.4,0.2,0.6c-0.1,0.5-0.6,0.7-1,0.3c0,0-0.1-0.1-0.1-0.1c-1.2-1.2-2.3-2.5-3.5-3.7c-0.1-0.1-0.2-0.3-0.3-0.4
		C6,14,6,14,6,13.9z"/>
	<path class="st1" d="M15.5,8.3c-0.1,0.4-0.1,0.9-0.2,1.4c-0.2,1.3-0.4,2.7-0.6,4c-0.2,1.4-0.4,2.8-0.6,4.2c-0.1,0.7-0.2,1.3-0.3,2
		c0,0.3-0.3,0.5-0.6,0.5c-0.3,0-0.5-0.2-0.6-0.4c0-0.1,0-0.2,0-0.3c0.3-1.7,0.5-3.3,0.8-5c0.2-1.5,0.4-2.9,0.7-4.4
		c0.1-0.7,0.2-1.4,0.3-2.1c0.1-0.3,0.3-0.6,0.7-0.5C15.3,7.6,15.5,7.9,15.5,8.3z"/>
	<path class="st1" d="M20.6,14c-0.5-0.6-1.1-1.1-1.6-1.7c-0.6-0.6-1.1-1.2-1.7-1.8c-0.2-0.2-0.3-0.4-0.2-0.6c0.1-0.4,0.6-0.6,1-0.3
		c0.1,0.1,0.2,0.2,0.2,0.2c1.2,1.2,2.3,2.5,3.5,3.7c0.2,0.2,0.3,0.4,0.2,0.7c0,0.1-0.1,0.2-0.2,0.3c-1.2,1.3-2.4,2.6-3.7,3.9
		c-0.3,0.3-0.6,0.3-0.9,0.1c-0.3-0.2-0.3-0.6,0-0.9c1.1-1.1,2.1-2.2,3.2-3.3C20.5,14.1,20.6,14.1,20.6,14z"/>
</g>
</svg>
