<?xml version="1.0" encoding="utf-8"?>
<!-- Generator: Adobe Illustrator 26.3.0, SVG Export Plug-In . SVG Version: 6.00 Build 0)  -->
<svg version="1.1" id="Layer_1" focusable="false" xmlns="http://www.w3.org/2000/svg" xmlns:xlink="http://www.w3.org/1999/xlink"
	 x="0px" y="0px" viewBox="0 0 28 28" style="enable-background:new 0 0 28 28;" xml:space="preserve">
<style type="text/css">
	.st0{fill:#5BE9B9;}
	.st1{display:none;}
	.st2{display:inline;fill:#141C3A;}
	.st3{fill:#141C3A;}
</style>
<circle class="st0" cx="14" cy="14" r="13.5"/>
<g class="st1">
	<path class="st2" d="M6.5,7.6c0.1-0.4,0.4-0.5,0.8-0.5c4.5,0,9,0,13.5,0c0.4,0,0.7,0.2,0.7,0.5c0,0.1,0,0.1,0,0.2
		c0,2.9,0,5.7,0,8.6c0,0.5-0.3,0.7-0.7,0.7c-0.1,0-0.2,0-0.3,0c-0.1,0-0.2-0.1-0.2-0.2c0-0.1,0.1-0.2,0.2-0.2c0.1,0,0.2,0,0.4,0
		c0.2,0,0.2-0.1,0.2-0.2c0,0,0-0.1,0-0.1c0-2.8,0-5.6,0-8.5c0-0.3-0.1-0.3-0.3-0.3c-4.5,0-9,0-13.5,0C7,7.5,6.9,7.6,6.9,7.8
		c0,2.8,0,5.7,0,8.5c0,0.3,0.1,0.3,0.3,0.3c4,0,8.1,0,12.1,0c0.1,0,0.1,0,0.2,0c0.1,0,0.2,0.1,0.2,0.2c0,0.1-0.1,0.2-0.2,0.2
		c0,0-0.1,0-0.1,0c-1.1,0-2.2,0-3.3,0c-0.1,0-0.1,0-0.2,0c0.1,0.8,0.3,1.5,0.4,2.3c0.1,0,0.2,0,0.3,0c0.4,0,0.7,0.3,0.7,0.7
		c0,0.2,0,0.4,0,0.6c0,0.2-0.1,0.3-0.3,0.3c-0.5,0-0.9,0-1.4,0c-1.5,0-3.1,0-4.6,0c-0.3,0-0.4-0.1-0.4-0.4c0-0.2,0-0.3,0-0.5
		c0-0.4,0.3-0.7,0.7-0.7c0.1,0,0.2,0,0.3,0c0.1-0.8,0.3-1.5,0.4-2.3c-0.1,0-0.1,0-0.2,0c-1.5,0-3.1,0-4.6,0c-0.4,0-0.7-0.1-0.8-0.5
		C6.5,13.6,6.5,10.6,6.5,7.6z M11.1,20.5c1.9,0,3.8,0,5.7,0c0-0.1,0-0.1,0-0.1c0-0.4-0.1-0.5-0.5-0.5c-0.9,0-1.8,0-2.6,0
		c-0.1,0-0.1,0-0.2,0c-0.1,0-0.2-0.2-0.1-0.3c0.1-0.1,0.2-0.1,0.2-0.1c0.7,0,1.3,0,2,0c0.1,0,0.1,0,0.2,0c-0.1-0.8-0.3-1.5-0.4-2.3
		c-1,0-2,0-2.9,0c-0.1,0.8-0.3,1.5-0.4,2.3c0.2,0,0.3,0,0.5,0c0.1,0,0.2,0.1,0.2,0.2c0,0.1,0,0.2-0.2,0.2c0,0-0.1,0-0.1,0
		c-0.3,0-0.6,0-0.9,0C11.2,19.9,11.1,20,11.1,20.5C11.1,20.4,11.1,20.5,11.1,20.5z"/>
	<path class="st2" d="M20.4,14.7c0-2.2,0-4.3,0-6.4c-4.2,0-8.5,0-12.7,0c0,2.1,0,4.3,0,6.4c0.3,0,0.6,0,0.9,0c0,0,0.1,0,0.1,0
		c0.1,0,0.2,0.1,0.2,0.2c0,0.1-0.1,0.2-0.2,0.2c-0.2,0-0.3,0-0.5,0c-0.2,0-0.5,0-0.7,0c-0.2,0-0.3-0.1-0.3-0.3c0-2.2,0-4.5,0-6.7
		c0-0.2,0.1-0.3,0.3-0.3c0.8,0,1.5,0,2.3,0c3.5,0,7.1,0,10.6,0c0.3,0,0.4,0.1,0.4,0.4c0,2.2,0,4.3,0,6.5c0,0.3-0.1,0.4-0.4,0.4
		c-3.5,0-7,0-10.5,0c-0.1,0-0.1,0-0.2,0c-0.1,0-0.2-0.1-0.2-0.2c0-0.1,0.1-0.2,0.2-0.2c0.1,0,0.1,0,0.2,0c3.4,0,6.8,0,10.2,0
		C20.2,14.7,20.3,14.7,20.4,14.7z"/>
	<path class="st2" d="M12.6,13.2c-0.2-0.1-0.3-0.1-0.4-0.2c-0.1,0-0.1,0-0.2,0c-0.3,0.1-0.4,0.3-0.4,0.6c0,0.2-0.1,0.3-0.3,0.3
		c-0.2,0-0.5,0-0.7,0c-0.2,0-0.3-0.1-0.3-0.3c0,0,0,0,0,0c0-0.3-0.2-0.5-0.4-0.6c0,0-0.1,0-0.1,0c-0.1,0-0.2,0.1-0.3,0.1
		c-0.2,0.1-0.3,0-0.4-0.1c-0.1-0.2-0.2-0.4-0.4-0.6c-0.1-0.2-0.1-0.3,0.1-0.4C8.9,11.8,9,11.6,9,11.3c0-0.1,0-0.1-0.1-0.1
		C8.8,11.1,8.7,11,8.7,11c-0.2-0.1-0.2-0.3-0.1-0.4c0.1-0.2,0.2-0.4,0.3-0.6C9,9.8,9.2,9.7,9.3,9.8c0.3,0.2,0.5,0.1,0.8-0.1
		c0,0,0.1-0.1,0.1-0.1c0-0.1,0-0.2,0-0.3c0-0.2,0.1-0.3,0.3-0.3c0.3,0,0.5,0,0.8,0c0.2,0,0.3,0.1,0.3,0.3c0,0.3,0.2,0.5,0.5,0.6
		c0,0,0.1,0,0.1,0c0.1,0,0.2-0.1,0.3-0.1c0.2-0.1,0.3,0,0.4,0.1c0.1,0.2,0.2,0.4,0.4,0.6c0.1,0.2,0.1,0.3-0.1,0.4
		c-0.3,0.2-0.4,0.4-0.3,0.7c0,0.1,0,0.1,0.1,0.1c0.1,0.1,0.2,0.1,0.3,0.2c0.1,0.1,0.2,0.2,0.1,0.4c-0.1,0.2-0.2,0.4-0.4,0.6
		C12.8,13.1,12.7,13.2,12.6,13.2z M9.2,10.2c-0.1,0.1-0.2,0.3-0.2,0.4c0.1,0.1,0.2,0.1,0.3,0.2c0.1,0.1,0.2,0.2,0.2,0.4
		c0,0.1,0,0.3,0,0.5c0,0.1,0,0.3-0.2,0.3c-0.1,0.1-0.2,0.1-0.3,0.2c0.1,0.1,0.2,0.3,0.2,0.4c0.1-0.1,0.2-0.1,0.3-0.1
		c0.1-0.1,0.2,0,0.3,0c0.1,0.1,0.3,0.2,0.4,0.3c0.1,0.1,0.2,0.1,0.2,0.3c0,0.1,0,0.2,0.1,0.4c0.2,0,0.3,0,0.5,0c0-0.1,0-0.2,0-0.3
		c0-0.2,0.1-0.3,0.2-0.3c0.1-0.1,0.3-0.1,0.4-0.2c0.1-0.1,0.3-0.1,0.4,0c0.1,0,0.2,0.1,0.3,0.1c0.1-0.1,0.2-0.3,0.2-0.4
		c-0.1-0.1-0.2-0.1-0.3-0.2c-0.1-0.1-0.2-0.2-0.1-0.3c0-0.2,0-0.3,0-0.5c0-0.1,0-0.2,0.1-0.3c0.1-0.1,0.2-0.1,0.3-0.2
		c-0.1-0.1-0.2-0.3-0.2-0.4c-0.1,0-0.2,0.1-0.3,0.1c-0.2,0.1-0.3,0.1-0.4,0c-0.1-0.1-0.2-0.2-0.4-0.2c-0.2-0.1-0.2-0.2-0.2-0.3
		c0-0.1,0-0.2,0-0.3c-0.2,0-0.3,0-0.5,0c0,0.1,0,0.2,0,0.3c0,0.2-0.1,0.3-0.2,0.3c-0.1,0.1-0.3,0.1-0.4,0.2c-0.1,0.1-0.2,0.1-0.4,0
		C9.5,10.3,9.4,10.3,9.2,10.2z"/>
	<path class="st2" d="M17.1,10.4c-0.8,0-1.6,0-2.4,0c-0.3,0-0.4-0.1-0.4-0.4c0-0.3,0-0.7,0-1c0-0.2,0.1-0.3,0.3-0.3c1.7,0,3.4,0,5,0
		c0.2,0,0.3,0.1,0.3,0.3c0,0.4,0,0.7,0,1.1c0,0.3-0.1,0.4-0.4,0.4C18.7,10.4,17.9,10.4,17.1,10.4z M14.7,10c1.6,0,3.2,0,4.7,0
		c0-0.3,0-0.6,0-0.8c-1.6,0-3.2,0-4.7,0C14.7,9.4,14.7,9.7,14.7,10z"/>
	<path class="st2" d="M17.1,12.5c-0.8,0-1.6,0-2.4,0c0,0-0.1,0-0.1,0c-0.2,0-0.3-0.1-0.3-0.2c0-0.1,0.1-0.2,0.3-0.2
		c0.6,0,1.2,0,1.8,0c1,0,2.1,0,3.1,0c0,0,0.1,0,0.1,0c0.1,0,0.2,0.1,0.2,0.2c0,0.1-0.1,0.2-0.2,0.2c-0.1,0-0.1,0-0.2,0
		C18.7,12.5,17.9,12.5,17.1,12.5z"/>
	<path class="st2" d="M17.7,11c0.6,0,1.2,0,1.9,0c0,0,0.1,0,0.1,0c0.1,0,0.2,0.1,0.2,0.2c0,0.1,0,0.2-0.2,0.2c0,0-0.1,0-0.1,0
		c-1.3,0-2.5,0-3.8,0c0,0-0.1,0-0.1,0c-0.1,0-0.2-0.1-0.2-0.2c0-0.1,0.1-0.2,0.2-0.2c0.1,0,0.2,0,0.2,0C16.5,11,17.1,11,17.7,11z"/>
	<path class="st2" d="M16.4,13.1c0.6,0,1.1,0,1.7,0c0,0,0.1,0,0.1,0c0.1,0,0.2,0.1,0.2,0.2c0,0.1,0,0.2-0.2,0.2c-0.1,0-0.1,0-0.2,0
		c-1.1,0-2.3,0-3.4,0c0,0-0.1,0-0.1,0c-0.1,0-0.2-0.1-0.2-0.2c0-0.1,0.1-0.2,0.2-0.2c0.1,0,0.3,0,0.4,0
		C15.4,13.1,15.9,13.1,16.4,13.1z"/>
	<path class="st2" d="M14,16.1c-0.3,0-0.6,0-0.9,0c-0.2,0-0.3-0.1-0.3-0.2c0-0.1,0.1-0.2,0.3-0.2c0.6,0,1.2,0,1.8,0
		c0.2,0,0.3,0.1,0.3,0.2c0,0.1-0.1,0.2-0.3,0.2C14.6,16.1,14.3,16.1,14,16.1z"/>
	<path class="st2" d="M11.7,11.5c0,0.5-0.4,0.9-0.9,0.9c-0.5,0-0.9-0.4-0.9-0.9c0-0.5,0.4-0.9,0.9-0.9C11.4,10.6,11.7,11,11.7,11.5z
		 M11.3,11.5c0-0.2-0.2-0.4-0.4-0.4c-0.2,0-0.4,0.2-0.4,0.4c0,0.2,0.2,0.4,0.4,0.4C11.1,11.9,11.3,11.7,11.3,11.5z"/>
</g>
<g class="st1">
	<path class="st2" d="M6,13.9c0.1-0.1,0.2-0.3,0.3-0.4c1.2-1.2,2.3-2.5,3.5-3.7c0.3-0.3,0.6-0.3,0.9-0.1c0.3,0.2,0.3,0.5,0.1,0.8
		c0,0.1-0.1,0.1-0.2,0.2c-1,1.1-2.1,2.2-3.1,3.3c0,0-0.1,0.1-0.1,0.1c0,0,0.1,0.1,0.1,0.1c1.1,1.1,2.1,2.2,3.2,3.3
		c0.2,0.2,0.3,0.4,0.2,0.6c-0.1,0.5-0.6,0.7-1,0.3c0,0-0.1-0.1-0.1-0.1c-1.2-1.2-2.3-2.5-3.5-3.7c-0.1-0.1-0.2-0.3-0.3-0.4
		C6,14,6,14,6,13.9z"/>
	<path class="st2" d="M15.5,8.3c-0.1,0.4-0.1,0.9-0.2,1.4c-0.2,1.3-0.4,2.7-0.6,4c-0.2,1.4-0.4,2.8-0.6,4.2c-0.1,0.7-0.2,1.3-0.3,2
		c0,0.3-0.3,0.5-0.6,0.5c-0.3,0-0.5-0.2-0.6-0.4c0-0.1,0-0.2,0-0.3c0.3-1.7,0.5-3.3,0.8-5c0.2-1.5,0.4-2.9,0.7-4.4
		c0.1-0.7,0.2-1.4,0.3-2.1c0.1-0.3,0.3-0.6,0.7-0.5C15.3,7.6,15.5,7.9,15.5,8.3z"/>
	<path class="st2" d="M20.6,14c-0.5-0.6-1.1-1.1-1.6-1.7c-0.6-0.6-1.1-1.2-1.7-1.8c-0.2-0.2-0.3-0.4-0.2-0.6c0.1-0.4,0.6-0.6,1-0.3
		c0.1,0.1,0.2,0.2,0.2,0.2c1.2,1.2,2.3,2.5,3.5,3.7c0.2,0.2,0.3,0.4,0.2,0.7c0,0.1-0.1,0.2-0.2,0.3c-1.2,1.3-2.4,2.6-3.7,3.9
		c-0.3,0.3-0.6,0.3-0.9,0.1c-0.3-0.2-0.3-0.6,0-0.9c1.1-1.1,2.1-2.2,3.2-3.3C20.5,14.1,20.6,14.1,20.6,14z"/>
</g>
<g>
	<path class="st3" d="M13.6,20.1C13.4,20,13.2,20,13,20c-1-0.2-1.8-0.5-2.6-1.1c0,0,0,0-0.1,0c0,0,0,0,0,0c0,0,0,0.1,0,0.1
		c0,0.2-0.1,0.4-0.2,0.4c-0.2,0.1-0.4,0-0.4-0.2c-0.1-0.2-0.2-0.5-0.2-0.7c-0.1-0.3-0.2-0.5-0.3-0.8c-0.1-0.2-0.1-0.3,0.1-0.4
		c0.1-0.1,0.3-0.1,0.4-0.1c0.5,0.2,1,0.3,1.4,0.5c0.2,0.1,0.3,0.2,0.3,0.4c0,0.2-0.1,0.3-0.3,0.3c0,0,0,0-0.1,0c0,0,0,0,0,0
		c0.3,0.2,0.6,0.3,0.9,0.5c0.8,0.3,1.6,0.5,2.4,0.5c1.9-0.1,3.4-1,4.4-2.6c0.5-0.9,0.8-1.9,0.7-2.9c0-0.6-0.2-1.2-0.4-1.8
		c-0.1-0.2,0-0.4,0.2-0.5c0.2-0.1,0.4,0,0.5,0.2c0.2,0.5,0.3,1,0.4,1.6c0,0.1,0,0.2,0,0.3c0,0.2,0,0.5,0,0.7c0,0,0,0.1,0,0.1
		c0,0.3-0.1,0.6-0.2,0.9c-0.5,2.3-2.5,4.2-4.8,4.6c-0.2,0-0.4,0.1-0.7,0.1C14.1,20.1,13.9,20.1,13.6,20.1z"/>
	<path class="st3" d="M14,10.1c0.2,0,0.4,0,0.7,0c0.2,0,0.4,0.1,0.4,0.4c0,0.1,0,0.3,0,0.4c0,0.1,0,0.1,0.1,0.1
		c0.3,0.1,0.6,0.3,0.9,0.5c0,0,0.1,0,0.1,0c0.1-0.1,0.3-0.1,0.4-0.2c0.2-0.1,0.4-0.1,0.5,0.1c0.2,0.4,0.5,0.8,0.7,1.2
		c0.1,0.2,0.1,0.4-0.1,0.5c-0.1,0.1-0.2,0.1-0.4,0.2c-0.1,0-0.1,0.1-0.1,0.1c0.1,0.3,0.1,0.7,0,1c0,0,0,0.1,0.1,0.1
		c0.1,0.1,0.3,0.1,0.4,0.2c0.2,0.1,0.3,0.3,0.1,0.5c-0.2,0.4-0.5,0.8-0.7,1.2c-0.1,0.2-0.3,0.3-0.5,0.1c-0.1-0.1-0.2-0.1-0.4-0.2
		c-0.1,0-0.1,0-0.2,0c-0.3,0.2-0.5,0.4-0.8,0.5c-0.1,0-0.1,0.1-0.1,0.1c0,0.1,0,0.3,0,0.4c0,0.2-0.1,0.4-0.4,0.4c-0.5,0-0.9,0-1.4,0
		c-0.2,0-0.4-0.1-0.4-0.4c0-0.1,0-0.3,0-0.4c0-0.1,0-0.1-0.1-0.1c-0.3-0.1-0.6-0.3-0.9-0.5c0,0-0.1,0-0.1,0
		c-0.1,0.1-0.3,0.1-0.4,0.2c-0.2,0.1-0.4,0.1-0.5-0.1c-0.2-0.4-0.5-0.8-0.7-1.2c-0.1-0.2-0.1-0.4,0.1-0.5c0.1-0.1,0.2-0.1,0.4-0.2
		c0.1,0,0.1-0.1,0.1-0.1c-0.1-0.3-0.1-0.7,0-1c0-0.1,0-0.1-0.1-0.1c-0.1-0.1-0.3-0.1-0.4-0.2c-0.2-0.1-0.2-0.3-0.1-0.5
		c0.2-0.4,0.5-0.8,0.7-1.2c0.1-0.2,0.3-0.2,0.5-0.1c0.1,0.1,0.2,0.1,0.4,0.2c0.1,0,0.1,0,0.1,0c0.3-0.2,0.5-0.4,0.9-0.5
		c0.1,0,0.1-0.1,0.1-0.1c0-0.1,0-0.3,0-0.4c0-0.2,0.1-0.4,0.4-0.4C13.5,10.1,13.8,10.1,14,10.1z M11.4,15.9c0.1-0.1,0.2-0.1,0.4-0.2
		c0.2-0.1,0.3-0.1,0.5,0.1c0.3,0.3,0.7,0.5,1.1,0.6c0.2,0.1,0.3,0.2,0.3,0.4c0,0.1,0,0.3,0,0.4c0.2,0,0.5,0,0.7,0c0-0.1,0-0.3,0-0.4
		c0-0.2,0.1-0.3,0.3-0.4c0.4-0.1,0.8-0.3,1.1-0.6c0.2-0.1,0.3-0.2,0.5-0.1c0.1,0.1,0.2,0.1,0.4,0.2c0.1-0.2,0.2-0.4,0.4-0.6
		c-0.1-0.1-0.3-0.1-0.4-0.2c-0.2-0.1-0.2-0.2-0.2-0.4c0.1-0.4,0.1-0.9,0-1.3c-0.1-0.2,0-0.3,0.2-0.4c0.1-0.1,0.2-0.1,0.4-0.2
		c-0.1-0.2-0.2-0.4-0.4-0.6c-0.1,0.1-0.2,0.1-0.3,0.2c-0.2,0.1-0.3,0.1-0.5-0.1c-0.3-0.3-0.7-0.5-1.1-0.6c-0.2-0.1-0.3-0.2-0.3-0.4
		c0-0.1,0-0.2,0-0.4c-0.2,0-0.5,0-0.7,0c0,0.1,0,0.3,0,0.4c0,0.2-0.1,0.3-0.3,0.4c-0.4,0.1-0.8,0.3-1.1,0.6
		c-0.2,0.2-0.3,0.2-0.5,0.1c-0.1-0.1-0.2-0.1-0.3-0.2c-0.1,0.2-0.2,0.4-0.4,0.6c0.1,0.1,0.2,0.1,0.3,0.2c0.2,0.1,0.3,0.3,0.2,0.5
		c-0.1,0.4-0.1,0.8,0,1.2c0.1,0.2,0,0.4-0.2,0.5c-0.1,0.1-0.2,0.1-0.3,0.2C11.2,15.5,11.3,15.7,11.4,15.9z"/>
	<path class="st3" d="M17,9.6c-0.5-0.3-0.9-0.5-1.5-0.7C12.6,8,9.4,9.9,8.7,13c-0.2,1-0.1,1.9,0.2,2.9C9,15.9,9,16,9.1,16
		c0.1,0.2,0,0.4-0.2,0.5c-0.2,0.1-0.4,0-0.5-0.2C8.3,15.9,8.1,15.4,8,15c-0.6-3,1.2-5.8,4-6.8c2-0.7,3.8-0.3,5.5,0.9
		c0,0,0.1,0,0.1,0.1c0,0,0,0,0,0c0-0.1,0-0.1,0-0.2c0-0.2,0.1-0.3,0.3-0.4c0.2,0,0.3,0,0.4,0.2c0,0.1,0.1,0.2,0.1,0.3
		c0.1,0.4,0.2,0.7,0.4,1.1c0.1,0.2,0.1,0.3-0.1,0.4c-0.1,0.1-0.3,0.1-0.4,0.1c-0.5-0.2-0.9-0.3-1.4-0.5c-0.2-0.1-0.3-0.2-0.3-0.4
		C16.7,9.8,16.8,9.7,17,9.6C17,9.6,17,9.6,17,9.6z"/>
	<path class="st3" d="M15.8,14c0,1-0.8,1.8-1.8,1.8c-1,0-1.8-0.8-1.8-1.8c0-1,0.8-1.8,1.8-1.8C15,12.2,15.8,13,15.8,14z M14,12.9
		c-0.6,0-1.1,0.5-1.1,1.1c0,0.6,0.5,1.1,1.1,1.1c0.6,0,1.1-0.5,1.1-1.1C15.1,13.4,14.6,12.9,14,12.9z"/>
</g>
<g class="st1">
	<path class="st2" d="M18.8,7.1C18.8,7.1,18.8,7.1,18.8,7.1c0.5,0.2,0.8,0.5,0.8,1c0,0.8,0,1.5,0,2.3c0,1,0,2.1,0,3.1
		c0,0.1,0,0.1,0,0.2c-0.2,0-0.3,0-0.5,0c0-0.1,0-0.1,0-0.2c0-1.8,0-3.5,0-5.3c0-0.4-0.2-0.6-0.6-0.6c-0.3,0-0.5,0-0.8,0
		c-0.3,0-0.5,0.2-0.5,0.5c0,0.2,0,0.5,0,0.7c0,0.3,0.2,0.5,0.5,0.5c0.3,0,0.5-0.2,0.5-0.5c0-0.1,0-0.1,0-0.2c-0.2,0-0.3,0-0.5,0
		c0-0.2,0-0.3,0-0.5c0.3,0,0.5,0,0.7,0c0.1,0,0.2,0.1,0.2,0.2c0,0.2,0,0.5,0,0.7c-0.1,0.5-0.5,0.8-0.9,0.8c-0.2,0-0.4,0-0.6,0
		c-2.8,0-5.6,0-8.5,0c-0.1,0-0.1,0-0.2,0c0,2.7,0,5.5,0,8.2c0.1,0,0.1,0,0.2,0c0.9,0,1.8,0,2.6,0c0.1,0,0.2,0,0.3,0.1
		c0.3,0.1,0.6,0.3,0.8,0.4c0.1,0.1,0.2,0.1,0.2,0.2c0,0.1-0.1,0.2-0.2,0.2c-0.3,0.1-0.5,0.3-0.8,0.4c-0.1,0-0.2,0.1-0.3,0.1
		c-0.9,0-1.8,0-2.6,0c-0.1,0-0.1,0-0.2,0c0,0.2,0,0.5,0,0.7c1.6,0,3.2,0,4.8,0c0,0.2,0,0.3,0,0.5c-0.1,0-0.1,0-0.2,0
		c-1.6,0-3.2,0-4.8,0c-0.3,0-0.3-0.1-0.3-0.3c0-0.3,0-0.6,0-0.9c-0.1,0-0.2,0-0.3,0c-0.4,0-0.7-0.3-0.7-0.7C7,18.3,7.3,18,7.7,18
		c0.1,0,0.2,0,0.3,0c0-2.8,0-5.5,0-8.2c-0.1,0-0.3-0.1-0.4-0.1C7.2,9.5,7,9.2,7,8.8C7,8.6,7,8.3,7,8c0-0.5,0.3-0.8,0.7-0.9
		c0,0,0,0,0.1,0C11.4,7.1,15.1,7.1,18.8,7.1z M16.8,7.6C16.8,7.6,16.7,7.6,16.8,7.6c-3,0-5.9,0-8.8,0c-0.3,0-0.5,0.2-0.5,0.5
		c0,0.2,0,0.4,0,0.6c0,0.4,0.2,0.6,0.6,0.6c2.9,0,5.7,0,8.6,0c0,0,0.1,0,0.1,0C16.6,8.7,16.6,8.1,16.8,7.6z M10.6,18.5
		C10.6,18.5,10.5,18.5,10.6,18.5c-1,0-1.9,0-2.8,0c0,0-0.1,0-0.1,0c-0.1,0.1-0.1,0.1-0.1,0.2c0,0.1,0,0.2,0.1,0.2c0,0,0.1,0,0.2,0
		c0.9,0,1.8,0,2.7,0c0,0,0.1,0,0.1,0C10.6,18.8,10.6,18.6,10.6,18.5z M11.7,18.7c-0.2-0.1-0.4-0.3-0.6-0.2c0,0.2,0,0.3,0,0.5
		C11.4,19,11.5,18.8,11.7,18.7z"/>
	<path class="st2" d="M20.3,15.1c0,0.1-0.1,0.1-0.1,0.2c-0.1,0.2-0.2,0.3-0.3,0.5c0,0.1,0,0.1,0,0.2c0,0.1,0.1,0.3,0.2,0.4
		c0,0,0.1,0.1,0.1,0.1c0.2,0.1,0.4,0.1,0.6,0.2c0.2,0,0.2,0.1,0.2,0.3c0,0.3,0,0.7,0,1c0,0.2-0.1,0.2-0.2,0.3
		c-0.2,0.1-0.4,0.1-0.6,0.2c-0.1,0-0.1,0.1-0.1,0.1c0,0.1-0.1,0.2-0.1,0.4c-0.1,0.1-0.1,0.2,0,0.3c0.1,0.2,0.2,0.3,0.3,0.5
		c0.1,0.2,0.1,0.3-0.1,0.4c-0.2,0.2-0.4,0.4-0.7,0.7c-0.1,0.1-0.2,0.1-0.4,0c-0.2-0.1-0.4-0.2-0.5-0.3c-0.1,0-0.1,0-0.2,0
		c-0.1,0.1-0.3,0.1-0.4,0.2c-0.1,0-0.1,0.1-0.1,0.1c-0.1,0.2-0.1,0.4-0.2,0.6c0,0.2-0.1,0.2-0.3,0.2c-0.3,0-0.6,0-1,0
		c-0.2,0-0.3-0.1-0.3-0.2c0-0.2-0.1-0.4-0.1-0.6c0-0.1-0.1-0.2-0.2-0.2c-0.1,0-0.2,0-0.2-0.1c-0.2-0.1-0.3-0.1-0.5,0
		c-0.1,0.1-0.3,0.2-0.4,0.3c-0.1,0.1-0.2,0.1-0.3,0c-0.2-0.2-0.5-0.5-0.7-0.7c-0.1-0.1-0.1-0.2,0-0.3c0.1-0.2,0.2-0.4,0.3-0.6
		c0,0,0-0.1,0-0.2c0-0.1-0.1-0.2-0.1-0.4c0-0.1-0.1-0.2-0.2-0.2c-0.2,0-0.4-0.1-0.6-0.1c-0.1,0-0.2-0.1-0.2-0.3c0-0.3,0-0.7,0-1
		c0-0.1,0.1-0.2,0.2-0.3c0.2,0,0.4-0.1,0.6-0.1c0.1,0,0.2-0.1,0.2-0.2c0-0.1,0.1-0.2,0.1-0.3c0.1-0.1,0-0.2,0-0.3
		c-0.1-0.2-0.2-0.3-0.3-0.5c-0.1-0.1-0.1-0.2,0-0.4c0.2-0.2,0.5-0.5,0.7-0.7c0.1-0.1,0.2-0.1,0.4,0c0.2,0.1,0.4,0.2,0.6,0.3
		c0,0,0.1,0,0.2,0c0.1-0.1,0.3-0.1,0.4-0.2c0.1,0,0.1-0.1,0.1-0.1c0.1-0.2,0.1-0.4,0.2-0.6c0-0.2,0.1-0.2,0.3-0.2c0.3,0,0.7,0,1,0
		c0.2,0,0.2,0.1,0.3,0.2c0,0.2,0.1,0.4,0.1,0.6c0,0.1,0.1,0.1,0.2,0.2c0.1,0,0.2,0.1,0.3,0.1c0.1,0.1,0.2,0.1,0.4,0
		c0.1-0.1,0.3-0.2,0.4-0.3c0.2-0.1,0.2-0.1,0.4,0c0.2,0.2,0.5,0.5,0.7,0.7C20.2,15,20.2,15.1,20.3,15.1z M14.6,14.7
		c-0.1,0.1-0.3,0.3-0.4,0.4c0,0,0,0.1,0,0.1c0.1,0.2,0.2,0.3,0.3,0.5c0.1,0.1,0.1,0.2,0,0.3c-0.1,0.2-0.2,0.4-0.3,0.7
		c0,0.1-0.1,0.2-0.2,0.2c-0.2,0-0.4,0.1-0.6,0.1c-0.1,0-0.1,0.1-0.1,0.1c0,0.2,0,0.3,0,0.5c0,0.1,0,0.1,0.1,0.1
		c0.2,0,0.4,0.1,0.6,0.1c0.1,0,0.2,0.1,0.2,0.2c0.1,0.2,0.2,0.5,0.3,0.7c0.1,0.1,0.1,0.2,0,0.3c-0.1,0.2-0.2,0.3-0.3,0.5
		c0,0,0,0.1,0,0.1c0.1,0.2,0.3,0.3,0.4,0.4c0.2-0.1,0.4-0.2,0.6-0.4c0.1-0.1,0.2-0.1,0.3,0c0.2,0.1,0.4,0.2,0.7,0.3
		c0.1,0,0.2,0.1,0.2,0.3c0,0.2,0.1,0.4,0.2,0.6c0.2,0,0.5,0,0.7,0c0.1-0.2,0.1-0.4,0.2-0.7c0-0.1,0.1-0.2,0.2-0.2
		c0.2-0.1,0.5-0.2,0.7-0.3c0.1-0.1,0.2-0.1,0.3,0c0.2,0.1,0.4,0.2,0.6,0.4c0.1-0.1,0.3-0.3,0.4-0.4c0,0,0-0.1,0-0.1
		c-0.1-0.2-0.2-0.3-0.3-0.5c-0.1-0.1-0.1-0.2,0-0.3c0.1-0.2,0.2-0.4,0.3-0.7c0-0.1,0.1-0.2,0.2-0.2c0.2,0,0.4-0.1,0.6-0.1
		c0.1,0,0.1-0.1,0.1-0.1c0-0.2,0-0.3,0-0.5c0-0.1,0-0.1-0.1-0.1c-0.2,0-0.4-0.1-0.6-0.1c-0.1,0-0.2-0.1-0.2-0.2
		c-0.1-0.2-0.2-0.4-0.3-0.7c-0.1-0.1-0.1-0.2,0-0.3c0.1-0.2,0.2-0.3,0.3-0.5c0,0,0-0.1,0-0.1c-0.1-0.2-0.3-0.3-0.4-0.4
		c-0.2,0.1-0.4,0.2-0.6,0.3c-0.1,0.1-0.2,0.1-0.4,0c-0.2-0.1-0.4-0.2-0.6-0.3c-0.2-0.1-0.3-0.1-0.3-0.3c0-0.2-0.1-0.4-0.1-0.6
		c-0.2,0-0.5,0-0.7,0c-0.1,0.2-0.1,0.4-0.2,0.6c0,0.1-0.1,0.2-0.2,0.3c-0.2,0.1-0.4,0.2-0.7,0.3c-0.1,0.1-0.2,0.1-0.3,0
		C15,14.9,14.8,14.8,14.6,14.7z"/>
	<path class="st2" d="M12.7,11c0.1-0.1,0.3-0.3,0.4-0.4c0.1-0.1,0.2-0.1,0.2-0.1c1,0,2,0,3,0c0,0,0,0,0.1,0c0,0.2,0,0.3,0,0.5
		c-0.1,0-0.1,0-0.2,0c-0.9,0-1.8,0-2.7,0c-0.2,0-0.3,0-0.4,0.2c-0.1,0.1-0.1,0.1-0.2,0.2c0.3,0.3,0.5,0.7,0.6,1.2
		c0,0.2,0.1,0.4,0.1,0.6c0,0.2-0.1,0.3-0.3,0.3c-0.8,0-1.6,0-2.4,0c-0.1,0-0.2,0-0.2-0.1c-0.6-0.6-1.1-1.1-1.7-1.7
		c-0.1-0.1-0.1-0.3,0-0.4c0.9-0.9,2.3-1,3.3-0.3C12.6,10.9,12.6,10.9,12.7,11z M12.3,11.3c-0.8-0.6-1.9-0.5-2.6,0.1
		c0.5,0.5,0.9,0.9,1.4,1.4c0,0,0.1,0,0.2,0c0.6,0,1.2,0,1.8,0c0,0,0.1,0,0.1,0c-0.1-0.5-0.2-0.9-0.6-1.2c-0.2,0.2-0.5,0.5-0.7,0.7
		c-0.1-0.1-0.2-0.2-0.3-0.3C11.9,11.8,12.1,11.6,12.3,11.3z"/>
	<path class="st2" d="M7,10.7c0.2,0,0.3,0,0.5,0c0,1.6,0,3.2,0,4.8c-0.2,0-0.3,0-0.5,0C7,13.9,7,12.3,7,10.7z"/>
	<path class="st2" d="M18.1,10c0.2,0,0.3,0,0.5,0c0,1.3,0,2.6,0,3.9c-0.2,0-0.3,0-0.5,0C18.1,12.6,18.1,11.3,18.1,10z"/>
	<path class="st2" d="M9.2,15.5c0-0.2,0-0.3,0-0.5c1.3,0,2.6,0,3.9,0c0,0.2,0,0.3,0,0.5C11.7,15.5,10.5,15.5,9.2,15.5z"/>
	<path class="st2" d="M12.3,16.5c-1,0-2.1,0-3.1,0c0-0.2,0-0.3,0-0.5c1,0,2.1,0,3.1,0C12.3,16.2,12.3,16.3,12.3,16.5z"/>
	<path class="st2" d="M14.5,12.4c1,0,1.9,0,2.9,0c0,0.2,0,0.3,0,0.5c-1,0-1.9,0-2.9,0C14.5,12.7,14.5,12.6,14.5,12.4z"/>
	<path class="st2" d="M10.6,14.6c0-0.2,0-0.3,0-0.5c0.8,0,1.6,0,2.4,0c0,0.2,0,0.3,0,0.5C12.2,14.6,11.4,14.6,10.6,14.6z"/>
	<path class="st2" d="M17.4,11.4c0,0.2,0,0.3,0,0.5c-0.6,0-1.3,0-1.9,0c0-0.2,0-0.3,0-0.5C16.1,11.4,16.7,11.4,17.4,11.4z"/>
	<path class="st2" d="M17.4,10.9C17.3,10.9,17.3,10.9,17.4,10.9c-0.5,0-0.5,0-0.5-0.5c0.1,0,0.3,0,0.5,0
		C17.4,10.6,17.4,10.8,17.4,10.9z"/>
	<path class="st2" d="M9.7,14.1c0.2,0,0.3,0,0.5,0c0,0.1,0,0.3,0,0.4c0,0,0,0.1-0.1,0.1c0,0,0,0,0,0C9.6,14.6,9.6,14.6,9.7,14.1z"/>
	<path class="st2" d="M14.5,11.9c0-0.2,0-0.3,0-0.5c0.2,0,0.3,0,0.5,0c0,0.1,0,0.3,0,0.5C14.8,11.9,14.7,11.9,14.5,11.9z"/>
	<path class="st2" d="M16.9,15.6c1.1,0,1.9,0.9,1.9,1.9c0,1.1-0.9,1.9-1.9,1.9c-1.1,0-1.9-0.9-1.9-1.9C15,16.4,15.8,15.6,16.9,15.6z
		 M16.9,16c-0.8,0-1.5,0.6-1.5,1.4c0,0.8,0.6,1.5,1.4,1.5c0.8,0,1.5-0.6,1.5-1.4C18.4,16.7,17.7,16,16.9,16z"/>
</g>
<g class="st1">
	<path class="st2" d="M19.5,19.2c-0.1,0.2-0.2,0.2-0.4,0.2c-3.4,0-6.7,0-10.1,0c0,0-0.1,0-0.1,0c-0.2,0-0.3-0.2-0.3-0.3
		c0-0.2,0.1-0.3,0.3-0.3c0.1,0,0.2,0,0.4,0c0-0.1,0-0.1,0-0.1c0-1.1,0-2.2,0-3.4c0-0.3,0.1-0.4,0.4-0.4c0.4,0,0.8,0,1.2,0
		c0.2,0,0.4,0.1,0.4,0.4c0,1.1,0,2.3,0,3.4c0,0,0,0.1,0,0.1c0.2,0,0.4,0,0.6,0c0,0,0-0.1,0-0.1c0-0.7,0-1.4,0-2.1
		c0-0.3,0.1-0.4,0.4-0.4c0.4,0,0.8,0,1.2,0c0.2,0,0.4,0.1,0.4,0.4c0,0.7,0,1.4,0,2.1c0,0,0,0.1,0,0.1c0.2,0,0.4,0,0.6,0
		c0,0,0-0.1,0-0.1c0-1.5,0-3.1,0-4.6c0-0.3,0.1-0.4,0.4-0.4c0.4,0,0.7,0,1.1,0c0.3,0,0.4,0.1,0.4,0.4c0,1.5,0,3.1,0,4.6
		c0,0,0,0.1,0,0.1c0.2,0,0.4,0,0.6,0c0,0,0-0.1,0-0.1c0-2.2,0-4.4,0-6.6c0-0.3,0.1-0.4,0.4-0.4c0.4,0,0.7,0,1.1,0
		c0.3,0,0.4,0.1,0.4,0.4c0,2.2,0,4.4,0,6.6c0,0,0,0.1,0,0.1c0.2,0,0.5-0.1,0.7,0.2C19.5,19.1,19.5,19.2,19.5,19.2z M18.2,18.8
		c0-2.2,0-4.3,0-6.4c-0.2,0-0.4,0-0.6,0c0,2.2,0,4.3,0,6.4C17.7,18.8,17.9,18.8,18.2,18.8z M15.6,18.8c0-1.5,0-3,0-4.5
		c-0.2,0-0.4,0-0.6,0c0,1.5,0,3,0,4.5C15.2,18.8,15.4,18.8,15.6,18.8z M10.5,18.8c0-1.1,0-2.2,0-3.2c-0.2,0-0.4,0-0.6,0
		c0,1.1,0,2.2,0,3.2C10,18.8,10.3,18.8,10.5,18.8z M12.4,16.9c0,0.7,0,1.3,0,2c0.2,0,0.4,0,0.6,0c0-0.7,0-1.3,0-2
		C12.8,16.9,12.6,16.9,12.4,16.9z"/>
	<path class="st2" d="M18,8.5c0.2,0,0.4,0.1,0.5,0.2c0.3,0.3,0.4,0.6,0.3,1c-0.1,0.4-0.4,0.6-0.8,0.7c-0.2,0-0.4,0-0.6-0.1
		c-0.1,0-0.1,0-0.1,0c-0.3,0.3-0.7,0.5-1,0.8c0,0,0,0.1,0,0.1c0.1,0.4,0,0.7-0.3,0.9c-0.3,0.3-0.6,0.3-1,0.2c0,0-0.1,0-0.1,0
		c-0.4,0.4-0.8,0.8-1.2,1.2c0,0,0,0.1,0,0.1c0.2,0.6-0.2,1.2-0.8,1.3c-0.6,0.1-1.1-0.4-1.1-1c0-0.1,0-0.1-0.1-0.1
		c-0.3-0.1-0.5-0.3-0.8-0.4c-0.1,0-0.1,0-0.2,0c-0.3,0.2-0.7,0.3-1,0.1c-0.4-0.2-0.6-0.5-0.6-0.9c0-0.4,0.2-0.7,0.6-0.9
		c0.6-0.3,1.3,0.2,1.3,0.9c0,0.1,0,0.1,0.1,0.1c0.3,0.1,0.5,0.3,0.8,0.4c0.1,0,0.1,0,0.2,0c0.3-0.2,0.6-0.3,0.9-0.1
		c0.1,0,0.1,0,0.1,0c0.4-0.4,0.8-0.8,1.2-1.2c0,0,0.1-0.1,0-0.1c-0.1-0.4,0-0.8,0.3-1.1c0.3-0.3,0.7-0.3,1.1-0.1c0.1,0,0.1,0,0.1,0
		c0.3-0.2,0.7-0.5,1-0.7c0,0,0-0.1,0-0.1c-0.1-0.5,0.2-1.1,0.8-1.2c0,0,0,0,0,0C17.8,8.5,17.9,8.5,18,8.5z M17.8,9.2
		c-0.2,0-0.3,0.1-0.3,0.3c0,0.2,0.1,0.3,0.3,0.3c0.2,0,0.3-0.1,0.3-0.3C18.2,9.3,18,9.2,17.8,9.2z M15.3,11.1
		c-0.2,0-0.3,0.1-0.3,0.3c0,0.2,0.1,0.3,0.3,0.3c0.2,0,0.3-0.1,0.3-0.3C15.6,11.2,15.5,11.1,15.3,11.1z M10.1,13
		c0.2,0,0.3-0.1,0.3-0.3c0-0.2-0.1-0.3-0.3-0.3c-0.2,0-0.3,0.1-0.3,0.3C9.8,12.9,10,13,10.1,13z M12.7,13.7c-0.2,0-0.3,0.1-0.3,0.3
		c0,0.2,0.1,0.3,0.3,0.3c0.2,0,0.3-0.1,0.3-0.3C13,13.8,12.9,13.7,12.7,13.7z"/>
</g>
<g class="st1">
	<path class="st2" d="M17,8.5c0.1,0,0.2,0,0.3,0c0.3,0.1,0.5,0.2,0.7,0.4c0.4,0.4,0.8,0.8,1.2,1.2c0.2,0.2,0.4,0.4,0.4,0.7
		c0,0.1,0,0.2,0,0.3c-0.1,0.3-0.2,0.5-0.4,0.7c-0.8,0.8-1.6,1.6-2.4,2.4c0,0-0.1,0-0.1,0.1c0,0,0,0,0,0c0,0,0.1,0,0.1,0.1
		c0.8,0.8,1.6,1.6,2.3,2.3c0.2,0.2,0.4,0.5,0.4,0.8c0,0.1,0,0.2,0.1,0.2c0,0.1,0,0.2,0,0.3c0,0,0,0.1,0,0.1
		c-0.1,0.3-0.2,0.6-0.4,0.9c-0.6,0.6-1.7,0.7-2.3,0c-0.8-0.8-1.6-1.6-2.4-2.4c0,0,0-0.1-0.1-0.1c0,0,0,0,0,0c0,0,0,0.1-0.1,0.1
		c-0.8,0.8-1.7,1.7-2.5,2.5c-0.4,0.4-0.9,0.4-1.3,0c-0.5-0.5-0.9-0.9-1.4-1.4c-0.4-0.4-0.4-0.9,0-1.4c0.8-0.8,1.7-1.7,2.5-2.5
		c0,0,0-0.1,0.1-0.1c0,0-0.1-0.1-0.1-0.1c-0.6-0.6-1.1-1.1-1.7-1.7c-0.3-0.3-0.6-0.7-0.7-1.2C8.9,10.2,8.7,9.6,8.6,9
		c-0.1-0.3,0-0.4,0.2-0.5c0.1,0,0.1,0,0.2,0c0,0,0.1,0,0.1,0c0.5,0.1,1,0.3,1.6,0.4c0.6,0.1,1.1,0.4,1.5,0.9c0.5,0.5,1,1.1,1.6,1.6
		c0,0,0.1,0.1,0.1,0.1c0,0,0-0.1,0.1-0.1c0.8-0.8,1.6-1.6,2.4-2.4C16.5,8.8,16.7,8.6,17,8.5z M18.5,11.4c0.1-0.1,0.2-0.2,0.3-0.3
		c0.1-0.1,0.1-0.3,0-0.4c-0.5-0.5-1-1-1.4-1.4c-0.1-0.1-0.3-0.1-0.4,0c-2.5,2.5-5.1,5.1-7.6,7.6c-0.2,0.2-0.2,0.3,0,0.4
		c0.5,0.5,0.9,0.9,1.4,1.4c0,0,0,0,0.1,0.1c0.1,0.1,0.2,0.1,0.3,0c0.1-0.1,0.2-0.2,0.3-0.3c0,0,0,0,0,0c-0.1-0.1-0.3-0.3-0.4-0.4
		c-0.2-0.2-0.2-0.3,0-0.5c0.1-0.1,0.3-0.1,0.5,0c0.1,0.1,0.2,0.2,0.3,0.3c0.1,0.1,0.1,0.1,0.1,0.2c0.2-0.2,0.3-0.3,0.5-0.5
		c0,0,0,0,0,0c-0.3-0.3-0.6-0.6-0.9-0.9c-0.1-0.1-0.1-0.1-0.1-0.2c0-0.1,0.1-0.3,0.2-0.3c0.1-0.1,0.3,0,0.4,0.1
		c0.3,0.3,0.6,0.6,0.9,0.9c0,0,0.1,0.1,0.1,0.1c0.2-0.2,0.3-0.3,0.5-0.5c-0.1-0.1-0.3-0.3-0.5-0.4c-0.2-0.2-0.2-0.4,0-0.5
		c0.1-0.1,0.3-0.1,0.5,0c0.2,0.2,0.3,0.3,0.5,0.5c0.2-0.2,0.3-0.3,0.5-0.5c-0.1-0.1-0.2-0.2-0.3-0.3c-0.2-0.2-0.4-0.4-0.6-0.6
		c-0.2-0.2-0.1-0.4,0.1-0.5c0.1-0.1,0.3,0,0.4,0.1c0.3,0.3,0.6,0.6,0.9,0.9c0,0,0.1,0.1,0.1,0.1c0.1-0.1,0.2-0.2,0.2-0.2
		c0.1-0.1,0.2-0.2,0.3-0.2c-0.1,0-0.1-0.1-0.1-0.1c-0.1-0.1-0.3-0.3-0.4-0.4c-0.1-0.1-0.1-0.3-0.1-0.4c0.1-0.1,0.2-0.2,0.3-0.2
		c0.1,0,0.1,0.1,0.2,0.1c0.2,0.2,0.3,0.3,0.5,0.5c0.2-0.2,0.3-0.3,0.5-0.5c-0.3-0.3-0.6-0.6-0.9-0.9c-0.2-0.2-0.2-0.4,0-0.5
		c0.1-0.1,0.3-0.1,0.5,0c0.2,0.2,0.4,0.4,0.7,0.7c0.1,0.1,0.2,0.2,0.3,0.3c0.2-0.2,0.3-0.3,0.5-0.5c0,0,0,0,0,0
		c-0.2-0.2-0.3-0.3-0.5-0.5c-0.2-0.2-0.2-0.3,0-0.5c0.1-0.1,0.3-0.1,0.5,0c0.2,0.2,0.3,0.3,0.5,0.5c0.2-0.2,0.3-0.3,0.5-0.5
		c-0.1-0.1-0.2-0.2-0.3-0.3c-0.2-0.2-0.5-0.5-0.7-0.7c-0.1-0.1-0.1-0.3-0.1-0.4c0.1-0.1,0.2-0.2,0.3-0.2c0.1,0,0.1,0.1,0.2,0.1
		C17.8,10.8,18.1,11.1,18.5,11.4z M16.1,14.7c-0.5,0.5-0.9,0.9-1.4,1.4c0.4,0.4,0.9,0.9,1.3,1.3c0.5-0.5,0.9-0.9,1.4-1.4
		C17,15.6,16.5,15.2,16.1,14.7z M16.5,17.9c0.3,0.2,0.5,0.5,0.8,0.7c0.4,0.3,0.9,0.2,1.3-0.1c0.3-0.3,0.4-0.9,0.1-1.3
		c-0.2-0.3-0.5-0.5-0.8-0.7C17.4,17,17,17.4,16.5,17.9z M10.3,11.7c0.5-0.5,0.9-0.9,1.4-1.4C11.4,10,11,9.7,10.5,9.6
		C10.3,9.5,10,9.5,9.8,9.4c-0.2,0-0.3-0.1-0.5-0.1c0,0,0,0,0,0.1c0.1,0.4,0.2,0.8,0.3,1.2C9.7,11.1,10,11.4,10.3,11.7z M10.8,12.2
		c0.4,0.4,0.7,0.7,1.1,1.1c0.4-0.4,0.9-0.9,1.4-1.4c-0.4-0.4-0.7-0.7-1.1-1.1C11.7,11.3,11.3,11.7,10.8,12.2z"/>
</g>
</svg>
