<?xml version="1.0" encoding="utf-8"?>
<!-- Generator: Adobe Illustrator 26.3.0, SVG Export Plug-In . SVG Version: 6.00 Build 0)  -->
<svg version="1.1" id="Layer_1" focusable="false" xmlns="http://www.w3.org/2000/svg" xmlns:xlink="http://www.w3.org/1999/xlink"
	 x="0px" y="0px" viewBox="0 0 28 28" style="enable-background:new 0 0 28 28;" xml:space="preserve">
<style type="text/css">
	.st0{fill:#5BE9B9;}
	.st1{fill:#141C3A;}
	.st2{display:none;}
	.st3{display:inline;fill:#141C3A;}
</style>
<circle class="st0" cx="14" cy="14" r="13.5"/>
<g class="st2">
	<path class="st3" d="M6,13.9c0.1-0.1,0.2-0.3,0.3-0.4c1.2-1.2,2.3-2.5,3.5-3.7c0.3-0.3,0.6-0.3,0.9-0.1c0.3,0.2,0.3,0.5,0.1,0.8
		c0,0.1-0.1,0.1-0.2,0.2c-1,1.1-2.1,2.2-3.1,3.3c0,0-0.1,0.1-0.1,0.1c0,0,0.1,0.1,0.1,0.1c1.1,1.1,2.1,2.2,3.2,3.3
		c0.2,0.2,0.3,0.4,0.2,0.6c-0.1,0.5-0.6,0.7-1,0.3c0,0-0.1-0.1-0.1-0.1c-1.2-1.2-2.3-2.5-3.5-3.7c-0.1-0.1-0.2-0.3-0.3-0.4
		C6,14,6,14,6,13.9z"/>
	<path class="st3" d="M15.5,8.3c-0.1,0.4-0.1,0.9-0.2,1.4c-0.2,1.3-0.4,2.7-0.6,4c-0.2,1.4-0.4,2.8-0.6,4.2c-0.1,0.7-0.2,1.3-0.3,2
		c0,0.3-0.3,0.5-0.6,0.5c-0.3,0-0.5-0.2-0.6-0.4c0-0.1,0-0.2,0-0.3c0.3-1.7,0.5-3.3,0.8-5c0.2-1.5,0.4-2.9,0.7-4.4
		c0.1-0.7,0.2-1.4,0.3-2.1c0.1-0.3,0.3-0.6,0.7-0.5C15.3,7.6,15.5,7.9,15.5,8.3z"/>
	<path class="st3" d="M20.6,14c-0.5-0.6-1.1-1.1-1.6-1.7c-0.6-0.6-1.1-1.2-1.7-1.8c-0.2-0.2-0.3-0.4-0.2-0.6c0.1-0.4,0.6-0.6,1-0.3
		c0.1,0.1,0.2,0.2,0.2,0.2c1.2,1.2,2.3,2.5,3.5,3.7c0.2,0.2,0.3,0.4,0.2,0.7c0,0.1-0.1,0.2-0.2,0.3c-1.2,1.3-2.4,2.6-3.7,3.9
		c-0.3,0.3-0.6,0.3-0.9,0.1c-0.3-0.2-0.3-0.6,0-0.9c1.1-1.1,2.1-2.2,3.2-3.3C20.5,14.1,20.6,14.1,20.6,14z"/>
</g>
<g>
	<path class="st1" d="M19,6.4C19,6.4,19,6.4,19,6.4c0.6,0.2,0.8,0.5,0.8,1c0,0.8,0,1.6,0,2.4c0,1.1,0,2.2,0,3.2c0,0.1,0,0.1,0,0.2
		c-0.2,0-0.3,0-0.5,0c0-0.1,0-0.1,0-0.2c0-1.8,0-3.7,0-5.5c0-0.4-0.2-0.6-0.6-0.6c-0.3,0-0.6,0-0.9,0c-0.3,0-0.5,0.2-0.5,0.5
		c0,0.2,0,0.5,0,0.7c0,0.3,0.2,0.5,0.5,0.5c0.3,0,0.5-0.2,0.5-0.5c0-0.1,0-0.1,0-0.2c-0.2,0-0.3,0-0.5,0c0-0.2,0-0.3,0-0.5
		c0.3,0,0.5,0,0.8,0c0.1,0,0.2,0.1,0.2,0.2c0,0.3,0,0.5,0,0.8c-0.1,0.5-0.5,0.8-1,0.8c-0.2,0-0.4,0-0.6,0c-3,0-5.9,0-8.9,0
		c-0.1,0-0.1,0-0.2,0c0,2.9,0,5.7,0,8.6c0.1,0,0.1,0,0.2,0c0.9,0,1.8,0,2.8,0c0.1,0,0.2,0,0.3,0.1c0.3,0.1,0.6,0.3,0.9,0.4
		c0.1,0.1,0.2,0.1,0.2,0.3c0,0.1-0.1,0.2-0.2,0.3c-0.3,0.1-0.6,0.3-0.9,0.4c-0.1,0-0.2,0.1-0.3,0.1c-0.9,0-1.8,0-2.7,0
		c-0.1,0-0.1,0-0.2,0c0,0.3,0,0.5,0,0.8c1.7,0,3.4,0,5,0c0,0.2,0,0.3,0,0.5c-0.1,0-0.1,0-0.2,0c-1.7,0-3.4,0-5,0
		c-0.3,0-0.4-0.1-0.4-0.4c0-0.3,0-0.6,0-0.9c-0.1,0-0.2,0-0.3,0c-0.4,0-0.7-0.3-0.7-0.8c0-0.4,0.3-0.7,0.7-0.8c0.1,0,0.2,0,0.3,0
		c0-2.9,0-5.7,0-8.6c-0.2,0-0.3-0.1-0.4-0.1C6.9,8.9,6.7,8.6,6.7,8.3c0-0.3,0-0.6,0-0.9c0-0.5,0.3-0.8,0.8-1c0,0,0,0,0.1,0
		C11.3,6.4,15.2,6.4,19,6.4z M16.9,6.9C16.9,6.9,16.9,6.9,16.9,6.9c-3.1,0-6.2,0-9.2,0c-0.3,0-0.5,0.2-0.5,0.5c0,0.2,0,0.4,0,0.7
		c0,0.4,0.2,0.6,0.6,0.6c3,0,6,0,9,0c0.1,0,0.1,0,0.1,0C16.7,8.1,16.7,7.5,16.9,6.9z M10.4,18.3C10.4,18.3,10.4,18.3,10.4,18.3
		c-1.1,0-2,0-3,0c0,0-0.1,0-0.1,0c-0.1,0.1-0.1,0.1-0.2,0.2c0,0.1,0,0.2,0.1,0.2c0,0,0.1,0,0.2,0c0.9,0,1.9,0,2.8,0c0,0,0.1,0,0.1,0
		C10.4,18.6,10.4,18.5,10.4,18.3z M11.6,18.6c-0.2-0.1-0.4-0.3-0.7-0.2c0,0.2,0,0.3,0,0.5C11.2,18.8,11.4,18.7,11.6,18.6z"/>
	<path class="st1" d="M20.6,14.8c0,0.1-0.1,0.1-0.1,0.2c-0.1,0.2-0.2,0.4-0.3,0.5c0,0.1,0,0.1,0,0.2c0,0.1,0.1,0.3,0.2,0.4
		c0,0.1,0.1,0.1,0.1,0.1c0.2,0.1,0.4,0.1,0.6,0.2c0.2,0,0.2,0.1,0.2,0.3c0,0.3,0,0.7,0,1c0,0.2-0.1,0.3-0.2,0.3
		c-0.2,0.1-0.4,0.1-0.6,0.2c-0.1,0-0.1,0.1-0.2,0.1c0,0.1-0.1,0.3-0.2,0.4c-0.1,0.1-0.1,0.2,0,0.3c0.1,0.2,0.2,0.3,0.3,0.5
		c0.1,0.2,0.1,0.3-0.1,0.4c-0.2,0.2-0.5,0.5-0.7,0.7c-0.1,0.1-0.2,0.2-0.4,0.1c-0.2-0.1-0.4-0.2-0.5-0.3c-0.1,0-0.1,0-0.2,0
		c-0.1,0.1-0.3,0.1-0.4,0.2c-0.1,0-0.1,0.1-0.1,0.1c-0.1,0.2-0.1,0.4-0.2,0.6c0,0.2-0.1,0.2-0.3,0.2c-0.3,0-0.7,0-1,0
		c-0.2,0-0.3-0.1-0.3-0.2c-0.1-0.2-0.1-0.4-0.1-0.6c0-0.1-0.1-0.2-0.2-0.2c-0.1,0-0.2,0-0.3-0.1c-0.2-0.1-0.3-0.1-0.5,0
		c-0.1,0.1-0.3,0.2-0.4,0.3c-0.1,0.1-0.3,0.1-0.4,0c-0.2-0.2-0.5-0.5-0.7-0.7c-0.1-0.1-0.1-0.2,0-0.4c0.1-0.2,0.2-0.4,0.3-0.6
		c0,0,0-0.1,0-0.2c0-0.1-0.1-0.3-0.2-0.4c0-0.1-0.1-0.2-0.2-0.2c-0.2,0-0.4-0.1-0.6-0.1c-0.1,0-0.2-0.1-0.2-0.3c0-0.4,0-0.7,0-1.1
		c0-0.1,0.1-0.2,0.2-0.3c0.2,0,0.4-0.1,0.6-0.2c0.1,0,0.2-0.1,0.2-0.2c0-0.1,0.1-0.2,0.1-0.4c0.1-0.1,0.1-0.2,0-0.3
		c-0.1-0.2-0.2-0.3-0.3-0.5c-0.1-0.2-0.1-0.2,0-0.4c0.2-0.2,0.5-0.5,0.7-0.7c0.1-0.1,0.2-0.1,0.4,0c0.2,0.1,0.4,0.2,0.6,0.3
		c0,0,0.1,0,0.2,0c0.2-0.1,0.3-0.1,0.4-0.2c0.1,0,0.1-0.1,0.1-0.1c0.1-0.2,0.1-0.4,0.2-0.6c0-0.2,0.1-0.2,0.3-0.2c0.3,0,0.7,0,1,0
		c0.2,0,0.3,0.1,0.3,0.2c0.1,0.2,0.1,0.4,0.1,0.6c0,0.1,0.1,0.2,0.2,0.2c0.1,0,0.2,0.1,0.3,0.1c0.1,0.1,0.2,0.1,0.4,0
		c0.1-0.1,0.3-0.2,0.5-0.3c0.2-0.1,0.3-0.1,0.4,0c0.2,0.2,0.5,0.5,0.7,0.7C20.5,14.7,20.5,14.7,20.6,14.8z M14.6,14.3
		c-0.2,0.2-0.3,0.3-0.4,0.5c0,0,0,0.1,0,0.1c0.1,0.2,0.2,0.4,0.3,0.5c0.1,0.1,0.1,0.2,0,0.3c-0.1,0.2-0.2,0.5-0.3,0.7
		c0,0.1-0.1,0.2-0.3,0.2c-0.2,0-0.4,0.1-0.6,0.1c-0.1,0-0.1,0.1-0.1,0.1c0,0.2,0,0.3,0,0.5c0,0.1,0,0.1,0.1,0.1
		c0.2,0,0.4,0.1,0.6,0.1c0.1,0,0.2,0.1,0.2,0.2c0.1,0.2,0.2,0.5,0.3,0.7c0.1,0.1,0.1,0.2,0,0.3c-0.1,0.2-0.2,0.4-0.3,0.5
		c0,0,0,0.1,0,0.1c0.1,0.2,0.3,0.3,0.5,0.5c0.2-0.1,0.4-0.2,0.6-0.4c0.1-0.1,0.2-0.1,0.3,0c0.2,0.1,0.5,0.2,0.7,0.3
		c0.1,0,0.2,0.1,0.2,0.3c0.1,0.2,0.1,0.4,0.2,0.7c0.2,0,0.5,0,0.7,0c0.1-0.2,0.1-0.5,0.2-0.7c0-0.1,0.1-0.2,0.2-0.2
		c0.2-0.1,0.5-0.2,0.7-0.3c0.1-0.1,0.2-0.1,0.3,0c0.2,0.1,0.4,0.2,0.6,0.4c0.2-0.2,0.3-0.3,0.4-0.5c0,0,0-0.1,0-0.1
		c-0.1-0.2-0.2-0.4-0.3-0.5c-0.1-0.1-0.1-0.2,0-0.3c0.1-0.2,0.2-0.5,0.3-0.7c0-0.1,0.1-0.2,0.3-0.2c0.2,0,0.4-0.1,0.6-0.1
		c0.1,0,0.1-0.1,0.1-0.1c0-0.2,0-0.3,0-0.5c0-0.1,0-0.1-0.1-0.1c-0.2,0-0.4-0.1-0.6-0.1c-0.1,0-0.2-0.1-0.3-0.2
		c-0.1-0.2-0.2-0.5-0.3-0.7c-0.1-0.1-0.1-0.2,0-0.3c0.1-0.2,0.2-0.4,0.3-0.5c0,0,0-0.1,0-0.1c-0.1-0.2-0.3-0.3-0.4-0.5
		c-0.2,0.1-0.4,0.2-0.6,0.4c-0.1,0.1-0.2,0.1-0.4,0c-0.2-0.1-0.4-0.2-0.6-0.3c-0.2-0.1-0.3-0.1-0.3-0.3c0-0.2-0.1-0.4-0.2-0.6
		c-0.3,0-0.5,0-0.7,0c-0.1,0.2-0.1,0.4-0.2,0.7c0,0.1-0.1,0.2-0.3,0.3c-0.2,0.1-0.5,0.2-0.7,0.3c-0.1,0.1-0.2,0.1-0.4,0
		C15,14.6,14.8,14.5,14.6,14.3z"/>
	<path class="st1" d="M12.6,10.5c0.1-0.1,0.3-0.3,0.4-0.4c0.1-0.1,0.2-0.1,0.2-0.1c1.1,0,2.1,0,3.2,0c0,0,0,0,0.1,0
		c0,0.2,0,0.3,0,0.5c-0.1,0-0.1,0-0.2,0c-0.9,0-1.9,0-2.8,0c-0.2,0-0.3,0-0.4,0.2c-0.1,0.1-0.1,0.1-0.2,0.2c0.3,0.4,0.6,0.8,0.7,1.2
		c0,0.2,0.1,0.4,0.1,0.7c0,0.2-0.1,0.3-0.3,0.3c-0.8,0-1.6,0-2.5,0c-0.1,0-0.2,0-0.2-0.1c-0.6-0.6-1.2-1.2-1.7-1.7
		c-0.1-0.1-0.1-0.3,0-0.4c0.9-0.9,2.4-1,3.4-0.3C12.5,10.4,12.6,10.4,12.6,10.5z M12.2,10.9c-0.8-0.6-2-0.5-2.7,0.1
		c0.5,0.5,1,1,1.5,1.5c0,0,0.1,0,0.2,0c0.6,0,1.3,0,1.9,0c0,0,0.1,0,0.1,0c-0.1-0.5-0.3-0.9-0.6-1.3c-0.2,0.2-0.5,0.5-0.7,0.7
		c-0.1-0.1-0.2-0.2-0.4-0.4C11.8,11.3,12,11.1,12.2,10.9z"/>
	<path class="st1" d="M6.7,10.2c0.2,0,0.3,0,0.5,0c0,1.7,0,3.4,0,5.1c-0.2,0-0.3,0-0.5,0C6.7,13.6,6.7,11.9,6.7,10.2z"/>
	<path class="st1" d="M18.3,9.4c0.2,0,0.3,0,0.5,0c0,1.4,0,2.7,0,4c-0.2,0-0.3,0-0.5,0C18.3,12.1,18.3,10.8,18.3,9.4z"/>
	<path class="st1" d="M8.9,15.3c0-0.2,0-0.3,0-0.5c1.4,0,2.7,0,4,0c0,0.2,0,0.3,0,0.5C11.6,15.3,10.3,15.3,8.9,15.3z"/>
	<path class="st1" d="M12.2,16.3c-1.1,0-2.2,0-3.3,0c0-0.2,0-0.3,0-0.5c1.1,0,2.2,0,3.3,0C12.2,15.9,12.2,16.1,12.2,16.3z"/>
	<path class="st1" d="M14.5,12c1,0,2,0,3,0c0,0.2,0,0.3,0,0.5c-1,0-2,0-3,0C14.5,12.3,14.5,12.2,14.5,12z"/>
	<path class="st1" d="M10.5,14.2c0-0.2,0-0.3,0-0.5c0.8,0,1.7,0,2.5,0c0,0.2,0,0.3,0,0.5C12.1,14.2,11.3,14.2,10.5,14.2z"/>
	<path class="st1" d="M17.5,11c0,0.2,0,0.3,0,0.5c-0.7,0-1.3,0-2,0c0-0.2,0-0.3,0-0.5C16.2,11,16.9,11,17.5,11z"/>
	<path class="st1" d="M17.5,10.4C17.5,10.4,17.5,10.5,17.5,10.4c-0.5,0-0.6,0-0.5-0.5c0.2,0,0.3,0,0.5,0
		C17.5,10.1,17.5,10.3,17.5,10.4z"/>
	<path class="st1" d="M9.5,13.8c0.2,0,0.3,0,0.5,0c0,0.1,0,0.3,0,0.4c0,0,0,0.1-0.1,0.1c0,0,0,0,0,0C9.4,14.3,9.4,14.2,9.5,13.8z"/>
	<path class="st1" d="M14.5,11.5c0-0.2,0-0.3,0-0.5c0.2,0,0.3,0,0.5,0c0,0.2,0,0.3,0,0.5C14.8,11.5,14.7,11.5,14.5,11.5z"/>
	<path class="st1" d="M17,15.3c1.1,0,2,0.9,2,2c0,1.1-0.9,2-2,2c-1.1,0-2-0.9-2-2C15,16.2,15.9,15.3,17,15.3z M17.1,15.8
		c-0.8,0-1.5,0.7-1.5,1.5c0,0.8,0.7,1.5,1.5,1.5c0.8,0,1.5-0.7,1.5-1.5C18.6,16.5,17.9,15.8,17.1,15.8z"/>
</g>
</svg>
